# xmcd
#
# Track frame offsets:
#	150
#	10655
#	30426
#	48647
#	63972
#	82167
#	97708
#	118082
#	131619
#	149794
#	166437
#	178137
#
# Disc length: 2640 seconds
# Revision: 0
# Processed by: cddbd v1.5.2PL0 Copyright (c) Steve Scherf et al.
# Submitted via: dBpowerAMP V12.0
#
DISCID=a30a4e0c
DTITLE=Sadie Hawkins Day String Band - Oh Me, Oh My! It's Sadie Hawkins Day!
DYEAR=2015
DGENRE=Country
TTITLE0=Let Me Fall
TTITLE1=Deep Ellum Blues
TTITLE2=The Old Yellow Dog Come Trottin' Through the Meetinghouse
TTITLE3=The Naturalist
TTITLE4=the Cat Came Back
TTITLE5=Poor Little Liza Jane
TTITLE6=There'll Be No Church Tonight
TTITLE7=Nail That Catfish to a Tree
TTITLE8=Fall on My Knees
TTITLE9=Lulu Walls
TTITLE10=Cripple Creek
TTITLE11=White Freightliner Blues
EXTD=
EXTT0=
EXTT1=
EXTT2=
EXTT3=
EXTT4=
EXTT5=
EXTT6=
EXTT7=
EXTT8=
EXTT9=
EXTT10=
EXTT11=
PLAYORDER=
